<mxfile host="app.diagrams.net" agent="Mozilla/5.0 (Windows NT 10.0; Win64; x64) AppleWebKit/537.36 (KHTML, like Gecko) Chrome/135.0.0.0 Safari/537.36" version="26.2.14">
  <diagram id="jpwkIBskUC9T8Rmrn3ky" name="UseCase_3.1">
    <mxGraphModel dx="1042" dy="596" grid="1" gridSize="10" guides="1" tooltips="1" connect="1" arrows="1" fold="1" page="1" pageScale="1" pageWidth="827" pageHeight="1169" math="0" shadow="0">
      <root>
        <mxCell id="0" />
        <mxCell id="1" parent="0" />
        <mxCell id="FiJuTZRkTp56awIogDIf-1" value="Аналітик" style="shape=umlLifeline;perimeter=lifelinePerimeter;whiteSpace=wrap;html=1;container=1;dropTarget=0;collapsible=0;recursiveResize=0;outlineConnect=0;portConstraint=eastwest;newEdgeStyle={&quot;curved&quot;:0,&quot;rounded&quot;:0};participant=umlActor;" parent="1" vertex="1">
          <mxGeometry x="40" y="40" width="20" height="920" as="geometry" />
        </mxCell>
        <mxCell id="FiJuTZRkTp56awIogDIf-2" value="Система аналітики" style="shape=umlLifeline;perimeter=lifelinePerimeter;whiteSpace=wrap;html=1;container=1;dropTarget=0;collapsible=0;recursiveResize=0;outlineConnect=0;portConstraint=eastwest;newEdgeStyle={&quot;curved&quot;:0,&quot;rounded&quot;:0};" parent="1" vertex="1">
          <mxGeometry x="120" y="40" width="100" height="920" as="geometry" />
        </mxCell>
        <mxCell id="FiJuTZRkTp56awIogDIf-3" value="" style="html=1;points=[[0,0,0,0,5],[0,1,0,0,-5],[1,0,0,0,5],[1,1,0,0,-5]];perimeter=orthogonalPerimeter;outlineConnect=0;targetShapes=umlLifeline;portConstraint=eastwest;newEdgeStyle={&quot;curved&quot;:0,&quot;rounded&quot;:0};" parent="FiJuTZRkTp56awIogDIf-2" vertex="1">
          <mxGeometry x="40" y="70" width="10" height="260" as="geometry" />
        </mxCell>
        <mxCell id="FiJuTZRkTp56awIogDIf-4" value="1. Вибирає період аналізу" style="html=1;verticalAlign=bottom;endArrow=block;curved=0;rounded=0;entryX=0;entryY=0;entryDx=0;entryDy=5;" parent="FiJuTZRkTp56awIogDIf-2" target="FiJuTZRkTp56awIogDIf-3" edge="1">
          <mxGeometry relative="1" as="geometry">
            <mxPoint x="-70.5" y="75.00000000000023" as="sourcePoint" />
          </mxGeometry>
        </mxCell>
        <mxCell id="FiJuTZRkTp56awIogDIf-5" value="" style="html=1;points=[[0,0,0,0,5],[0,1,0,0,-5],[1,0,0,0,5],[1,1,0,0,-5]];perimeter=orthogonalPerimeter;outlineConnect=0;targetShapes=umlLifeline;portConstraint=eastwest;newEdgeStyle={&quot;curved&quot;:0,&quot;rounded&quot;:0};" parent="FiJuTZRkTp56awIogDIf-2" vertex="1">
          <mxGeometry x="40" y="360" width="10" height="240" as="geometry" />
        </mxCell>
        <mxCell id="FiJuTZRkTp56awIogDIf-9" value="" style="html=1;points=[[0,0,0,0,5],[0,1,0,0,-5],[1,0,0,0,5],[1,1,0,0,-5]];perimeter=orthogonalPerimeter;outlineConnect=0;targetShapes=umlLifeline;portConstraint=eastwest;newEdgeStyle={&quot;curved&quot;:0,&quot;rounded&quot;:0};" parent="FiJuTZRkTp56awIogDIf-2" vertex="1">
          <mxGeometry x="45" y="750" width="10" height="150" as="geometry" />
        </mxCell>
        <mxCell id="FiJuTZRkTp56awIogDIf-10" value="База данних" style="shape=umlLifeline;perimeter=lifelinePerimeter;whiteSpace=wrap;html=1;container=1;dropTarget=0;collapsible=0;recursiveResize=0;outlineConnect=0;portConstraint=eastwest;newEdgeStyle={&quot;curved&quot;:0,&quot;rounded&quot;:0};" parent="1" vertex="1">
          <mxGeometry x="280" y="40" width="100" height="920" as="geometry" />
        </mxCell>
        <mxCell id="FiJuTZRkTp56awIogDIf-11" value="" style="html=1;points=[[0,0,0,0,5],[0,1,0,0,-5],[1,0,0,0,5],[1,1,0,0,-5]];perimeter=orthogonalPerimeter;outlineConnect=0;targetShapes=umlLifeline;portConstraint=eastwest;newEdgeStyle={&quot;curved&quot;:0,&quot;rounded&quot;:0};" parent="FiJuTZRkTp56awIogDIf-10" vertex="1">
          <mxGeometry x="40" y="160" width="10" height="130" as="geometry" />
        </mxCell>
        <mxCell id="FiJuTZRkTp56awIogDIf-12" value="" style="html=1;points=[[0,0,0,0,5],[0,1,0,0,-5],[1,0,0,0,5],[1,1,0,0,-5]];perimeter=orthogonalPerimeter;outlineConnect=0;targetShapes=umlLifeline;portConstraint=eastwest;newEdgeStyle={&quot;curved&quot;:0,&quot;rounded&quot;:0};" parent="FiJuTZRkTp56awIogDIf-10" vertex="1">
          <mxGeometry x="40" y="390" width="10" height="150" as="geometry" />
        </mxCell>
        <mxCell id="FiJuTZRkTp56awIogDIf-13" value="Система експорту" style="shape=umlLifeline;perimeter=lifelinePerimeter;whiteSpace=wrap;html=1;container=1;dropTarget=0;collapsible=0;recursiveResize=0;outlineConnect=0;portConstraint=eastwest;newEdgeStyle={&quot;curved&quot;:0,&quot;rounded&quot;:0};" parent="1" vertex="1">
          <mxGeometry x="450" y="40" width="100" height="920" as="geometry" />
        </mxCell>
        <mxCell id="FiJuTZRkTp56awIogDIf-14" value="" style="html=1;points=[[0,0,0,0,5],[0,1,0,0,-5],[1,0,0,0,5],[1,1,0,0,-5]];perimeter=orthogonalPerimeter;outlineConnect=0;targetShapes=umlLifeline;portConstraint=eastwest;newEdgeStyle={&quot;curved&quot;:0,&quot;rounded&quot;:0};" parent="FiJuTZRkTp56awIogDIf-13" vertex="1">
          <mxGeometry x="45" y="780" width="10" height="80" as="geometry" />
        </mxCell>
        <mxCell id="FiJuTZRkTp56awIogDIf-15" value="2. Вибирає параметри звіту" style="html=1;verticalAlign=bottom;endArrow=block;curved=0;rounded=0;" parent="1" source="FiJuTZRkTp56awIogDIf-1" edge="1">
          <mxGeometry width="80" relative="1" as="geometry">
            <mxPoint x="80" y="170" as="sourcePoint" />
            <mxPoint x="160" y="170" as="targetPoint" />
          </mxGeometry>
        </mxCell>
        <mxCell id="FiJuTZRkTp56awIogDIf-16" value="3. Запит даних продажів" style="html=1;verticalAlign=bottom;endArrow=block;curved=0;rounded=0;entryX=0;entryY=0;entryDx=0;entryDy=5;" parent="1" source="FiJuTZRkTp56awIogDIf-2" target="FiJuTZRkTp56awIogDIf-11" edge="1">
          <mxGeometry relative="1" as="geometry">
            <mxPoint x="250" y="205" as="sourcePoint" />
          </mxGeometry>
        </mxCell>
        <mxCell id="FiJuTZRkTp56awIogDIf-17" value="6. Формування графіків" style="html=1;verticalAlign=bottom;endArrow=open;dashed=1;endSize=8;curved=0;rounded=0;exitX=0;exitY=1;exitDx=0;exitDy=-5;" parent="1" source="FiJuTZRkTp56awIogDIf-11" target="FiJuTZRkTp56awIogDIf-2" edge="1">
          <mxGeometry relative="1" as="geometry">
            <mxPoint x="250" y="275" as="targetPoint" />
          </mxGeometry>
        </mxCell>
        <mxCell id="FiJuTZRkTp56awIogDIf-18" value="7. Отримує Аналітичні дані" style="html=1;verticalAlign=bottom;endArrow=open;dashed=1;endSize=8;curved=0;rounded=0;exitX=0;exitY=1;exitDx=0;exitDy=-5;" parent="1" source="FiJuTZRkTp56awIogDIf-3" target="FiJuTZRkTp56awIogDIf-1" edge="1">
          <mxGeometry x="-0.0045" relative="1" as="geometry">
            <mxPoint x="49.5" y="314.9999999999998" as="targetPoint" />
            <mxPoint as="offset" />
          </mxGeometry>
        </mxCell>
        <mxCell id="FiJuTZRkTp56awIogDIf-19" value="5. Агрегація та обробка даних" style="html=1;verticalAlign=bottom;endArrow=open;dashed=1;endSize=8;curved=0;rounded=0;exitX=0;exitY=1;exitDx=0;exitDy=-5;" parent="1" edge="1">
          <mxGeometry relative="1" as="geometry">
            <mxPoint x="170" y="290" as="targetPoint" />
            <mxPoint x="320" y="290" as="sourcePoint" />
          </mxGeometry>
        </mxCell>
        <mxCell id="FiJuTZRkTp56awIogDIf-20" value="4. Повертає дані" style="html=1;verticalAlign=bottom;endArrow=open;dashed=1;endSize=8;curved=0;rounded=0;exitX=0;exitY=1;exitDx=0;exitDy=-5;" parent="1" edge="1">
          <mxGeometry relative="1" as="geometry">
            <mxPoint x="170" y="250" as="targetPoint" />
            <mxPoint x="320" y="250" as="sourcePoint" />
          </mxGeometry>
        </mxCell>
        <mxCell id="FiJuTZRkTp56awIogDIf-21" value="8. Запитпорівняльних даних" style="html=1;verticalAlign=bottom;endArrow=block;curved=0;rounded=0;entryX=0;entryY=0;entryDx=0;entryDy=5;" parent="1" source="FiJuTZRkTp56awIogDIf-1" target="FiJuTZRkTp56awIogDIf-5" edge="1">
          <mxGeometry relative="1" as="geometry">
            <mxPoint x="90" y="405" as="sourcePoint" />
          </mxGeometry>
        </mxCell>
        <mxCell id="FiJuTZRkTp56awIogDIf-22" value="12. Отримує порівняльний звіт" style="html=1;verticalAlign=bottom;endArrow=open;dashed=1;endSize=8;curved=0;rounded=0;exitX=0;exitY=1;exitDx=0;exitDy=-5;" parent="1" source="FiJuTZRkTp56awIogDIf-5" target="FiJuTZRkTp56awIogDIf-1" edge="1">
          <mxGeometry relative="1" as="geometry">
            <mxPoint x="90" y="475" as="targetPoint" />
          </mxGeometry>
        </mxCell>
        <mxCell id="FiJuTZRkTp56awIogDIf-23" value="9. Запит додаткових даних" style="html=1;verticalAlign=bottom;endArrow=block;curved=0;rounded=0;entryX=0;entryY=0;entryDx=0;entryDy=5;" parent="1" source="FiJuTZRkTp56awIogDIf-2" target="FiJuTZRkTp56awIogDIf-12" edge="1">
          <mxGeometry relative="1" as="geometry">
            <mxPoint x="250" y="435" as="sourcePoint" />
          </mxGeometry>
        </mxCell>
        <mxCell id="FiJuTZRkTp56awIogDIf-24" value="11. Формує порівняльний графік" style="html=1;verticalAlign=bottom;endArrow=open;dashed=1;endSize=8;curved=0;rounded=0;exitX=0;exitY=1;exitDx=0;exitDy=-5;" parent="1" source="FiJuTZRkTp56awIogDIf-12" target="FiJuTZRkTp56awIogDIf-2" edge="1">
          <mxGeometry relative="1" as="geometry">
            <mxPoint x="250" y="505" as="targetPoint" />
          </mxGeometry>
        </mxCell>
        <mxCell id="FiJuTZRkTp56awIogDIf-25" value="10. Повертає дані" style="html=1;verticalAlign=bottom;endArrow=open;dashed=1;endSize=8;curved=0;rounded=0;exitX=0;exitY=1;exitDx=0;exitDy=-5;" parent="1" edge="1">
          <mxGeometry relative="1" as="geometry">
            <mxPoint x="170" y="510" as="targetPoint" />
            <mxPoint x="320" y="510" as="sourcePoint" />
          </mxGeometry>
        </mxCell>
        <mxCell id="FiJuTZRkTp56awIogDIf-28" value="13. Запитує експорт даних" style="html=1;verticalAlign=bottom;endArrow=block;curved=0;rounded=0;entryX=0;entryY=0;entryDx=0;entryDy=5;" parent="1" source="FiJuTZRkTp56awIogDIf-1" target="FiJuTZRkTp56awIogDIf-9" edge="1">
          <mxGeometry x="0.0043" relative="1" as="geometry">
            <mxPoint x="95" y="795" as="sourcePoint" />
            <mxPoint as="offset" />
          </mxGeometry>
        </mxCell>
        <mxCell id="FiJuTZRkTp56awIogDIf-29" value="16. отримує експортований файл" style="html=1;verticalAlign=bottom;endArrow=open;dashed=1;endSize=8;curved=0;rounded=0;exitX=0;exitY=1;exitDx=0;exitDy=-5;" parent="1" source="FiJuTZRkTp56awIogDIf-9" target="FiJuTZRkTp56awIogDIf-1" edge="1">
          <mxGeometry relative="1" as="geometry">
            <mxPoint x="95" y="865" as="targetPoint" />
          </mxGeometry>
        </mxCell>
        <mxCell id="FiJuTZRkTp56awIogDIf-30" value="14. Запит на експорт" style="html=1;verticalAlign=bottom;endArrow=block;curved=0;rounded=0;entryX=0;entryY=0;entryDx=0;entryDy=5;" parent="1" source="FiJuTZRkTp56awIogDIf-2" target="FiJuTZRkTp56awIogDIf-14" edge="1">
          <mxGeometry relative="1" as="geometry">
            <mxPoint x="420" y="785" as="sourcePoint" />
          </mxGeometry>
        </mxCell>
        <mxCell id="FiJuTZRkTp56awIogDIf-31" value="15. Повертає файл" style="html=1;verticalAlign=bottom;endArrow=open;dashed=1;endSize=8;curved=0;rounded=0;exitX=0;exitY=1;exitDx=0;exitDy=-5;" parent="1" source="FiJuTZRkTp56awIogDIf-14" target="FiJuTZRkTp56awIogDIf-2" edge="1">
          <mxGeometry relative="1" as="geometry">
            <mxPoint x="420" y="855" as="targetPoint" />
          </mxGeometry>
        </mxCell>
      </root>
    </mxGraphModel>
  </diagram>
</mxfile>
